<svg 
width="220" height="35" viewBox="0 0 370.1515151515151 55.13782207757941" class="css-1j8o68f"><defs id="SvgjsDefs2299"></defs><g id="SvgjsG2300" featurekey="symbolFeature-0" transform="matrix(0.8893187260146546,0,0,0.8893187260146546,-2.5398944460332165,-16.673777914136156)" fill="current">
<path xmlns="http://www.w3.org/2000/svg" fill="current" d="M93.688,55.988l-0.615-2.663c-0.004-0.015-0.014-0.025-0.018-0.039c-0.012-0.033-0.025-0.063-0.043-0.094  c-0.016-0.026-0.03-0.051-0.05-0.074c-0.022-0.025-0.046-0.047-0.073-0.067c-0.023-0.02-0.047-0.036-0.074-0.05  c-0.028-0.016-0.059-0.026-0.091-0.035c-0.031-0.01-0.062-0.017-0.096-0.02c-0.015-0.001-0.028-0.009-0.043-0.009H78.472  l2.038-16.855c0.003-0.021-0.004-0.039-0.004-0.06s0.007-0.04,0.004-0.061l-0.191-1.585c-0.002-0.008-0.006-0.015-0.008-0.022  c-0.006-0.032-0.02-0.062-0.031-0.095c-0.013-0.031-0.022-0.062-0.04-0.09c-0.005-0.006-0.005-0.014-0.009-0.021l-0.928-1.316  c-0.005-0.006-0.012-0.009-0.016-0.015c-0.021-0.027-0.049-0.049-0.076-0.071c-0.024-0.021-0.046-0.042-0.072-0.058  c-0.008-0.004-0.012-0.011-0.02-0.015l-1.418-0.719c-0.069-0.035-0.144-0.048-0.217-0.049c-0.008-0.001-0.014-0.004-0.021-0.005  l-1.604,0.039c-0.007,0-0.013,0.004-0.02,0.005c-0.033,0.002-0.065,0.013-0.099,0.022c-0.032,0.009-0.064,0.016-0.094,0.03  c-0.007,0.003-0.015,0.003-0.021,0.007l-1.398,0.788c-0.002,0.001-0.002,0.002-0.004,0.003c-0.001,0-0.002,0-0.003,0.001  l-10.836,6.328c-0.021,0.012-0.032,0.03-0.051,0.045c-0.026,0.021-0.052,0.04-0.073,0.065c-0.021,0.024-0.037,0.052-0.053,0.08  c-0.016,0.027-0.03,0.054-0.041,0.084c-0.01,0.03-0.014,0.061-0.018,0.092c-0.004,0.032-0.008,0.063-0.006,0.096  c0.002,0.033,0.01,0.063,0.019,0.096c0.006,0.022,0.004,0.045,0.013,0.066l2.385,5.706c0,0,0,0,0.001,0  c0.034,0.083,0.096,0.147,0.167,0.201c0.016,0.013,0.031,0.023,0.049,0.033c0.074,0.043,0.154,0.073,0.245,0.073h3.188v14.476  c0,0.026,0.011,0.048,0.015,0.073c0.006,0.037,0.008,0.073,0.021,0.108c0.015,0.036,0.039,0.066,0.061,0.099  c0.014,0.02,0.02,0.042,0.037,0.06l0.938,1.012c0.007,0.008,0.018,0.011,0.025,0.019c0.033,0.031,0.07,0.057,0.11,0.077  c0.017,0.009,0.031,0.021,0.049,0.027c0.058,0.022,0.118,0.037,0.181,0.037c0,0,0,0,0.001,0l0,0h0.001  c0.037,0,0.073-0.004,0.11-0.013l22.552-5.15h0.002c0.049-0.011,0.088-0.035,0.129-0.059c0.017-0.01,0.037-0.013,0.051-0.023  c0.033-0.023,0.057-0.057,0.082-0.087c0.016-0.019,0.037-0.032,0.049-0.053c0.027-0.042,0.041-0.09,0.055-0.139  c0.003-0.014,0.012-0.025,0.015-0.04C93.704,56.123,93.703,56.056,93.688,55.988z"></path>
<path xmlns="http://www.w3.org/2000/svg" fill="current" d="M64.134,31.436c0.062,0,0.124-0.012,0.186-0.036l0.007-0.003c0.001,0,0.003-0.001,0.004-0.002l8.704-3.476  c0.001,0,0.002-0.001,0.003-0.002c0.05-0.021,0.092-0.052,0.133-0.086c0.01-0.009,0.022-0.013,0.031-0.021  c0.022-0.022,0.035-0.052,0.053-0.078c0.019-0.027,0.042-0.051,0.055-0.08c0.006-0.014,0.005-0.03,0.01-0.044  c0.016-0.048,0.029-0.097,0.029-0.147c0-0.002,0.001-0.003,0.001-0.005v-0.424c0-0.025-0.011-0.047-0.015-0.071  c-0.006-0.037-0.008-0.074-0.021-0.109c-0.012-0.031-0.032-0.056-0.05-0.083c-0.017-0.027-0.03-0.055-0.053-0.078  c-0.026-0.029-0.062-0.049-0.095-0.07c-0.019-0.012-0.032-0.03-0.054-0.04l-0.019-0.009l0,0l-16.536-7.778  c-0.005-0.002-0.011-0.002-0.016-0.004c-0.036-0.016-0.073-0.021-0.111-0.027c-0.026-0.004-0.052-0.014-0.078-0.014  c-0.032-0.001-0.063,0.009-0.097,0.015c-0.031,0.006-0.063,0.009-0.094,0.021c-0.006,0.002-0.013,0.001-0.019,0.004l-1.805,0.793  c-0.03,0.014-0.053,0.037-0.079,0.056c-0.022,0.016-0.047,0.023-0.067,0.043L41.908,31.502c-0.001,0.001-0.001,0.002-0.002,0.003  c-0.042,0.041-0.074,0.091-0.099,0.145c-0.003,0.006-0.009,0.011-0.011,0.017c-0.005,0.012-0.004,0.026-0.008,0.038  c-0.017,0.05-0.03,0.101-0.031,0.153c0,0.001-0.001,0.002-0.001,0.004v0.82c0,0.276,0.224,0.5,0.5,0.5h4.07l0,0c0,0,0,0,0,0  c0,0,0,0,0.001,0c0.098,0,0.184-0.036,0.26-0.085c0.01-0.006,0.022-0.003,0.032-0.01l8.963-6.492L62.6,31.35  c0.01,0.006,0.021,0.004,0.029,0.009c0.074,0.045,0.156,0.076,0.25,0.077l0,0c0,0,0,0,0.001,0l0,0H64.134z"></path>
<path xmlns="http://www.w3.org/2000/svg" fill="current" d="M98.258,27.99c-0.002-0.01,0.001-0.02-0.002-0.029l-0.902-3.368c-0.002-0.01-0.01-0.017-0.013-0.026  c-0.011-0.032-0.028-0.062-0.046-0.092c-0.016-0.027-0.031-0.056-0.052-0.079c-0.008-0.009-0.011-0.02-0.019-0.027l-2.47-2.47  c-0.007-0.008-0.018-0.01-0.024-0.017c-0.025-0.022-0.055-0.039-0.085-0.056c-0.028-0.017-0.056-0.033-0.087-0.044  c-0.01-0.003-0.018-0.011-0.027-0.014l-3.369-0.902c-0.014-0.003-0.025,0-0.038-0.002c-0.031-0.006-0.062-0.004-0.095-0.004  c-0.029,0-0.058-0.002-0.086,0.004c-0.014,0.002-0.027-0.001-0.041,0.002l-3.371,0.902c-0.01,0.003-0.018,0.011-0.027,0.014  c-0.031,0.011-0.059,0.027-0.087,0.044c-0.03,0.017-0.06,0.033-0.085,0.056c-0.007,0.007-0.018,0.009-0.024,0.017l-2.471,2.47  c-0.009,0.009-0.012,0.021-0.02,0.03c-0.02,0.021-0.034,0.047-0.049,0.073c-0.019,0.031-0.037,0.062-0.048,0.095  c-0.004,0.01-0.011,0.017-0.014,0.026l-0.902,3.368c-0.002,0.01,0,0.02-0.002,0.029c-0.006,0.033-0.006,0.066-0.006,0.102  c0,0.033,0,0.065,0.006,0.098c0.002,0.01,0,0.02,0.002,0.03l0.902,3.36c0.002,0.007,0.01,0.01,0.012,0.017  c0.023,0.075,0.059,0.147,0.118,0.207l2.471,2.467c0.007,0.008,0.017,0.01,0.024,0.017c0.025,0.021,0.053,0.037,0.082,0.054  c0.03,0.018,0.059,0.035,0.092,0.046c0.01,0.003,0.016,0.01,0.025,0.013l3.371,0.905c0.043,0.012,0.086,0.018,0.129,0.018l0,0h0.001  h0.001l0,0c0.043,0,0.086-0.006,0.129-0.018l3.369-0.905c0.01-0.003,0.016-0.01,0.025-0.013c0.033-0.011,0.062-0.028,0.092-0.046  c0.029-0.017,0.057-0.032,0.082-0.054c0.008-0.007,0.018-0.009,0.024-0.017l2.47-2.467c0.06-0.06,0.095-0.132,0.117-0.206  c0.003-0.008,0.01-0.011,0.012-0.018l0.902-3.36c0.004-0.011,0-0.021,0.002-0.03c0.007-0.032,0.006-0.064,0.007-0.098  C98.265,28.057,98.266,28.023,98.258,27.99z"></path>
<path xmlns="http://www.w3.org/2000/svg" fill="current" d="M60.892,50.894c-0.003-0.034-0.01-0.065-0.02-0.098c-0.01-0.031-0.021-0.06-0.036-0.088  s-0.031-0.052-0.051-0.076c-0.021-0.026-0.043-0.049-0.069-0.07c-0.022-0.02-0.048-0.035-0.074-0.05  c-0.03-0.018-0.062-0.03-0.097-0.041c-0.015-0.005-0.026-0.016-0.043-0.019c-0.018-0.004-0.035,0.001-0.053-0.001  c-0.017-0.002-0.031-0.01-0.048-0.01h-0.953c-0.01,0-0.018,0.005-0.026,0.006c-0.036,0.002-0.069,0.011-0.104,0.021  c-0.033,0.009-0.063,0.017-0.092,0.031c-0.01,0.005-0.02,0.005-0.028,0.01l-7.455,4.308l-6.368-8.339  c-0.027-0.035-0.062-0.059-0.096-0.084c-0.123-0.097-0.278-0.136-0.426-0.097c-0.063,0.016-0.124,0.045-0.179,0.087  c0,0,0,0.001-0.001,0.001L31.036,56.779h-5.408c-0.276,0-0.5,0.224-0.5,0.5v3.02L3.075,75.322c-0.013,0.009-0.02,0.022-0.031,0.032  c-0.027,0.022-0.05,0.046-0.072,0.073c-0.02,0.024-0.037,0.049-0.052,0.077c-0.015,0.027-0.025,0.056-0.034,0.086  c-0.01,0.033-0.017,0.065-0.021,0.101c-0.001,0.015-0.009,0.028-0.009,0.044v4.514c0,0.008,0.004,0.015,0.004,0.022  c0.001,0.033,0.012,0.064,0.02,0.098s0.015,0.065,0.029,0.096c0.003,0.007,0.002,0.015,0.006,0.021  c0.006,0.012,0.019,0.016,0.026,0.027c0.036,0.056,0.08,0.102,0.134,0.139c0.018,0.013,0.033,0.025,0.052,0.035  c0.069,0.036,0.145,0.062,0.228,0.062c0,0,0,0,0,0l0,0c0,0,0.001-0.001,0.002-0.001c0.079,0,0.151-0.022,0.217-0.055  c0.006-0.003,0.013-0.002,0.019-0.005l31.413-16.977l19.757,7.419l0,0l0.019,0.007c0.058,0.022,0.117,0.032,0.176,0.032h1.362l0,0  l0,0c0.064,0,0.124-0.014,0.182-0.036c0.02-0.008,0.036-0.021,0.055-0.031c0.035-0.019,0.068-0.039,0.098-0.065  c0.018-0.016,0.031-0.034,0.046-0.052c0.023-0.028,0.044-0.058,0.062-0.092c0.012-0.022,0.02-0.046,0.027-0.07  c0.006-0.018,0.018-0.033,0.021-0.052l4.08-19.729c0.004-0.018-0.001-0.034,0-0.052c0.002-0.018,0.011-0.032,0.011-0.05  C60.901,50.925,60.894,50.91,60.892,50.894z"></path></g><g id="SvgjsG2301" featurekey="nameFeature-0" transform="matrix(1.647906655789632,0,0,1.647906655789632,102.956597695563,-29.6285442411167)" fill="current"><path d="M14.84 28 c0 -2.12 -2.04 -2.64 -3.8 -2.64 s-3.8 0.52 -3.8 2.64 s2.04 2.64 3.8 2.64 s3.8 -0.52 3.8 -2.64 z M13.24 43.8 c0 -1.36 -0.96 -1.88 -2.2 -1.88 s-2.2 0.52 -2.2 1.88 s0.96 1.88 2.2 1.88 s2.2 -0.52 2.2 -1.88 z M18.64 43.8 c0 4.24 -3.96 6 -7.6 6 c-3.68 0 -7.6 -1.92 -7.6 -6 c0 -3 2.2 -5.04 5 -5.68 l0 -2.16 c-1.16 -0.2 -2.16 -0.56 -3.04 -1.08 c-2.6 -1.36 -4.16 -3.96 -4.16 -6.88 c0 -5.52 4.92 -8.2 9.8 -8.2 c2.16 0 4 0.4 5.52 1.24 c1.56 -0.76 3.08 -1.04 4.8 -1.04 l1.56 0 l0 4.84 l-0.88 0 l-0.88 0 c-0.28 0.04 -0.6 0.08 -0.92 0.16 c0.4 0.92 0.6 1.92 0.6 3 c0 4.28 -3.08 7.08 -7 7.92 l0 2.24 c2.68 0.76 4.8 2.72 4.8 5.64 z M39.957 30 l0 -10 l6 0 l0 18.96 c0 6.36 -4.56 10.24 -10.6 10.24 c-2.12 0 -4.24 -0.2 -6.28 -0.88 l0 -6.16 c1.72 0.92 4.04 1.24 5.96 1.24 c2.16 0 3.88 -0.64 4.68 -2.72 c0.16 -0.56 0.24 -1.16 0.24 -1.76 l0 -0.92 c-1.36 1.52 -3.12 2.2 -5.12 2.2 c-5.68 0 -9.28 -4.88 -9.28 -10.2 l0 -10 l6 0 l0 10 c0 2.72 1.08 4.64 4 4.64 c2.84 0 4.4 -1.88 4.4 -4.64 z M82.754 29.2 l0 10.8 l-6 0 l0 -10.8 c0 -2.28 -1.08 -3.84 -3.48 -3.84 c-2.36 0 -3.52 1.6 -3.52 3.84 l0 10.8 l-6 0 l0 -10.8 c0 -2.28 -1.16 -3.84 -3.56 -3.84 c-2.36 0 -3.44 1.6 -3.44 3.84 l0 10.8 l-6 0 l0 -10.8 c0 -5.8 3.96 -9.4 9.52 -9.4 c2.84 0 5.04 1.32 6.48 3.76 c1.44 -2.44 3.64 -3.76 6.48 -3.76 c5.76 0 9.52 3.8 9.52 9.4 z M102.828 30 c0 2.96 1.48 4.64 4.48 4.64 c0.84 0 1.6 -0.12 2.2 -0.4 c1.12 -0.44 1.88 -1.28 2.28 -2.44 c0.16 -0.56 0.24 -1.16 0.24 -1.8 s-0.08 -1.24 -0.24 -1.8 c-0.44 -1.24 -1.12 -1.92 -2.28 -2.48 c-0.6 -0.24 -1.36 -0.36 -2.2 -0.36 c-3 0 -4.48 1.68 -4.48 4.64 z M102.828 38 l0 10 l-6 0 l0 -18 c0 -6.4 4.52 -10.2 10.56 -10.2 c6.16 0 10.64 4.04 10.64 10.16 c0 5.68 -4.28 10.24 -9.96 10.24 c-1.16 0 -2.16 -0.2 -3 -0.6 c-0.88 -0.36 -1.64 -0.92 -2.24 -1.6 z M131.065 34.64 c2.92 0 4.6 -1.72 4.6 -4.64 s-1.68 -4.64 -4.6 -4.64 s-4.6 1.72 -4.6 4.64 s1.68 4.64 4.6 4.64 z M131.065 40.2 c-6.16 0 -10.6 -4.08 -10.6 -10.2 c0 -6.32 4.6 -10.2 10.6 -10.2 c6.2 0 10.6 4.08 10.6 10.2 c0 6.28 -4.64 10.2 -10.6 10.2 z M144.382 39.36 l0 -5.6 c2.64 0.8 5.96 0.96 8.68 0.96 c1.08 0 1.92 -0.04 2.52 -0.16 c0.56 -0.08 0.84 -0.28 0.84 -0.56 c0 -0.12 -0.04 -0.2 -0.12 -0.32 c-0.4 -0.4 -1.28 -0.6 -1.8 -0.72 s-1.2 -0.28 -2.04 -0.44 c-0.68 -0.12 -1.48 -0.28 -2.4 -0.48 c-3.12 -0.68 -5.52 -2.44 -5.52 -5.8 c0 -4.96 4.84 -6.44 8.92 -6.44 c2.56 0 5.12 0.36 7.64 0.88 l0 5.64 c-2.52 -0.76 -5.36 -0.96 -8 -0.96 c-1.04 0 -1.76 0.04 -2.2 0.16 s-0.68 0.32 -0.68 0.56 c0 0.36 0.36 0.6 1.04 0.72 c0.68 0.16 1.64 0.36 2.8 0.56 c1.04 0.2 2.04 0.4 3 0.64 c2.96 0.76 5.08 2.36 5.08 5.56 c0 5.36 -5.4 6.68 -9.72 6.68 c-2.72 0 -5.4 -0.36 -8.04 -0.88 z"></path></g></svg>